<svg xmlns="http://www.w3.org/2000/svg" fill="none" viewBox="0 0 128 128" width="64" height="64">
  <rect width="96" height="96" x="16" y="16" fill="#5E6AD2" rx="5"/>
  <path fill="#F4F5F8" fill-rule="evenodd" d="M41.6891 34.049C31.9075 34.049 24 42.0328 24 51.91c0 7.8953 5.0666 14.5785 12.0953 16.9439.8788.1778 1.2007-.3843 1.2007-.8572 0-.414-.029-1.8334-.029-3.3122-4.9207 1.0648-5.9454-2.1291-5.9454-2.1291-.7908-2.07-1.9624-2.6021-1.9624-2.6021-1.6106-1.0941.1173-1.0941.1173-1.0941 1.7865.1183 2.7239 1.8334 2.7239 1.8334 1.5812 2.7203 4.1292 1.9517 5.1542 1.4784.1463-1.1533.6152-1.9516 1.113-2.3951-3.9245-.4141-8.0537-1.9517-8.0537-8.8124 0-1.9517.7024-3.5485 1.8155-4.7903-.1756-.4435-.7908-2.2772.1759-4.7315 0 0 1.4936-.4733 4.8613 1.8333a16.9753 16.9753 0 0 1 4.4225-.5915c1.4936 0 3.0161.2072 4.4221.5915 3.368-2.3066 4.8616-1.8333 4.8616-1.8333.9668 2.4543.3512 4.288.1756 4.7315 1.1424 1.2418 1.8159 2.8386 1.8159 4.7903 0 6.8607-4.1292 8.3686-8.0831 8.8124.6445.5618 1.2006 1.6262 1.2006 3.3118 0 2.3952-.0289 4.3175-.0289 4.9087 0 .4732.3222 1.0353 1.2006.8579 7.0287-2.3662 12.0953-9.049 12.0953-16.9443.029-9.8772-7.9075-17.861-17.6597-17.861Z" clip-rule="evenodd"/>
  <path fill="#F4F5F8" d="M68.951 55.8796c-.079-.3366.322-.5485.5664-.3041l12.956 12.956c.2445.2445.0325.6454-.3041.5665-6.5381-1.5338-11.6846-6.6802-13.2183-13.2184Zm-.4342-5.1926a.3508.3508 0 0 0 .1028.2699L87.092 69.4294a.3508.3508 0 0 0 .2699.1027 17.7611 17.7611 0 0 0 2.4706-.3285c.2712-.0557.3655-.389.1696-.5848l-20.5719-20.572c-.1958-.1958-.5291-.1016-.5849.1697a17.7747 17.7747 0 0 0-.3285 2.4705Zm1.4935-6.0974a.3506.3506 0 0 0 .0737.3903l22.9851 22.985a.3504.3504 0 0 0 .3903.0737 17.6943 17.6943 0 0 0 1.84-.9524c.1959-.1164.2261-.3856.065-.5467l-23.855-23.8549c-.1611-.1612-.4303-.1309-.5467.065a17.7137 17.7137 0 0 0-.9524 1.84Zm2.9976-4.1273c-.1313-.1313-.1394-.342-.0157-.4805 3.2521-3.6408 7.9828-5.9328 13.2488-5.9328 9.808 0 17.759 7.9509 17.759 17.7589 0 5.266-2.292 9.9967-5.9329 13.2488-.1385.1238-.3491.1156-.4805-.0157L73.0079 40.4623Z"/>
  <path stroke="#F4F5F8" stroke-linecap="round" stroke-width="4.5" d="M47.2258 84.3716c3.2258 12.9032 29.6774 14.1935 32.9032 0"/>
  <path fill="#F4F5F8" stroke="#F4F5F8" stroke-linejoin="round" stroke-width="3" d="M83.6028 79.4188a1.4999 1.4999 0 0 0-2.3685-1.0677l-6.5259 4.695a1.5 1.5 0 0 0 .2596 2.5851l7.329 3.3041a1.5 1.5 0 0 0 2.1089-1.5173l-.8031-7.9992Z"/>
</svg>
